<?xml version="1.0" standalone="no"?>
<!DOCTYPE svg PUBLIC "-//W3C//DTD SVG 20010904//EN"
 "http://www.w3.org/TR/2001/REC-SVG-20010904/DTD/svg10.dtd">
<svg version="1.0" xmlns="http://www.w3.org/2000/svg"
 width="347.000000pt" height="350.000000pt" viewBox="0 0 347.000000 350.000000"
 preserveAspectRatio="xMidYMid meet">

<g transform="translate(0.000000,350.000000) scale(0.100000,-0.100000)"
fill="#000000" stroke="none">
<path d="M161 3343 c-42 -43 -85 -94 -95 -113 -17 -31 -12 -28 46 27 36 34
101 85 144 112 l79 51 -49 0 c-47 0 -50 -2 -125 -77z"/>
<path d="M321 3395 c-73 -42 -164 -120 -212 -182 -53 -68 -93 -132 -87 -138 2
-3 51 4 109 15 57 11 106 20 108 20 2 0 -25 -28 -61 -62 -97 -94 -158 -182
-157 -227 0 -31 2 -34 12 -18 31 48 36 47 12 0 l-25 -52 0 -1376 0 -1375 1710
0 1710 0 0 1431 0 1430 -42 57 c-23 31 -73 87 -111 125 -39 37 -68 67 -66 67
2 0 51 -9 108 -20 58 -11 107 -18 109 -15 3 2 -10 30 -29 61 -47 78 -150 182
-236 238 l-72 46 -1368 0 -1368 0 -44 -25z m674 -50 c82 -30 181 -94 310 -198
55 -45 93 -72 84 -61 -76 94 -122 142 -178 186 -91 71 -91 71 -45 54 85 -29
123 -56 170 -118 55 -71 249 -275 278 -290 33 -18 -90 149 -177 240 -23 23
-38 42 -35 42 13 0 156 -119 242 -201 l89 -85 81 80 c73 71 220 196 232 196 2
0 -29 -39 -69 -87 -84 -100 -142 -183 -129 -183 16 0 186 174 260 267 39 49
84 95 99 102 55 25 128 52 118 44 -5 -5 -42 -34 -80 -65 -63 -51 -93 -82 -160
-168 -19 -25 -19 -25 0 -10 11 8 54 42 95 76 103 83 157 119 248 162 68 33 86
37 152 36 106 0 135 -19 42 -27 -71 -6 -161 -37 -183 -63 -10 -12 -8 -13 15
-4 108 41 355 31 428 -17 21 -14 37 -27 35 -29 -2 -2 -24 3 -50 11 -26 8 -75
17 -109 20 l-63 6 60 -21 c85 -30 212 -93 262 -129 37 -27 113 -123 113 -143
0 -4 -20 6 -44 23 -51 34 -96 54 -144 63 -28 5 -14 -8 75 -72 122 -88 119 -80
83 -201 -25 -85 -24 -85 -134 17 -149 138 -357 199 -483 142 -47 -21 -59 -36
-17 -20 63 24 203 1 324 -54 59 -26 148 -82 115 -71 -145 48 -290 58 -374 26
-57 -21 -68 -29 -132 -94 -27 -27 -53 -46 -59 -42 -5 3 -10 34 -11 68 l-1 62
-20 -58 c-11 -31 -24 -55 -28 -52 -5 3 -21 33 -36 65 -17 39 -33 60 -44 60 -9
0 -50 -11 -90 -25 l-74 -25 -146 45 c-80 25 -152 45 -160 45 -9 0 -80 -20
-159 -45 l-143 -44 -80 25 c-44 14 -86 23 -94 20 -8 -3 -26 -30 -40 -61 -14
-30 -29 -57 -34 -60 -5 -3 -18 23 -29 57 l-19 63 -1 -67 c-1 -37 -6 -70 -11
-73 -6 -4 -32 15 -58 42 -63 63 -86 79 -145 99 -65 22 -216 15 -307 -14 -35
-12 -66 -20 -68 -18 -1 2 37 24 85 49 153 79 297 106 381 72 l37 -15 -24 19
c-64 50 -186 55 -306 13 -97 -34 -152 -68 -230 -142 -75 -72 -102 -87 -109
-62 -2 9 -14 50 -26 90 -11 40 -18 77 -15 82 4 6 54 44 113 86 76 54 98 73 77
69 -52 -12 -106 -35 -151 -66 -24 -16 -44 -27 -44 -24 0 3 18 33 41 66 54 80
156 144 324 204 53 18 63 24 40 24 -30 1 -143 -21 -180 -34 -11 -4 -2 6 20 23
36 27 52 31 152 42 114 12 214 5 279 -20 23 -9 25 -8 15 4 -21 26 -112 57
-182 63 -74 6 -79 11 -27 23 61 15 117 10 183 -15z m2435 -547 c0 -17 -10 -6
-25 25 l-16 32 20 -25 c11 -14 21 -28 21 -32z m-2507 5 c-7 -2 -19 -2 -25 0
-7 3 -2 5 12 5 14 0 19 -2 13 -5z m878 -15 l64 -22 -67 -8 c-38 -4 -98 -4
-135 0 l-68 8 60 21 c76 27 69 27 146 1z m-476 -14 l30 -14 -34 5 c-42 6 -34
-4 11 -15 l33 -8 -38 -1 c-23 -1 -36 -5 -32 -11 3 -6 -4 -10 -17 -11 -21 0
-21 -1 -4 -8 19 -7 19 -8 -3 -14 -13 -3 -20 -10 -17 -15 6 -10 -31 -48 -39
-40 -5 5 22 103 36 131 12 21 34 21 74 1z m903 -58 c13 -38 20 -71 18 -74 -9
-8 -46 30 -40 40 3 5 -4 12 -17 15 -22 6 -22 7 -3 14 17 7 17 8 -4 8 -13 1
-20 5 -17 11 4 6 -9 10 -32 11 l-38 1 33 8 c45 11 53 21 11 15 l-34 -5 30 15
c53 26 68 17 93 -59z m-498 3 c14 0 82 3 151 7 106 5 136 4 181 -11 63 -19
135 -77 180 -143 l31 -47 -43 40 c-39 37 -38 34 13 -27 31 -37 63 -80 71 -96
31 -60 57 -178 61 -282 5 -98 4 -103 -9 -70 -8 19 -15 49 -16 65 -2 29 -2 29
-9 5 -6 -21 -9 -15 -19 34 -7 33 -13 73 -13 90 -1 20 -3 24 -6 12 -3 -10 2
-64 12 -120 9 -55 15 -137 13 -181 l-3 -80 -17 45 c-13 36 -17 40 -17 19 -1
-14 -8 -49 -17 -79 -11 -39 -18 -49 -25 -39 -7 12 -9 12 -9 -1 0 -9 -15 -47
-34 -85 -19 -39 -34 -61 -34 -50 1 11 0 54 -1 95 l-2 75 -20 -54 c-10 -30 -22
-57 -26 -60 -3 -3 -3 2 0 12 4 11 9 31 12 45 3 15 -10 -15 -29 -67 -37 -98
-55 -125 -120 -172 -60 -44 -66 -40 -50 34 20 92 17 98 -17 37 -32 -59 -58
-90 -44 -55 22 58 13 52 -19 -12 -39 -81 -53 -95 -31 -32 8 23 15 44 14 48 -1
12 -38 -74 -38 -91 -1 -9 -6 -20 -13 -24 -7 -5 -9 -2 -6 7 19 51 15 56 -9 9
-15 -30 -35 -55 -43 -55 -8 0 -28 25 -43 55 -27 53 -29 53 -12 1 5 -16 4 -21
-4 -17 -6 4 -11 15 -12 24 0 17 -37 103 -38 91 -1 -4 6 -25 14 -48 22 -63 8
-49 -31 32 -32 64 -41 70 -19 12 14 -35 -12 -4 -45 55 l-31 55 7 -40 c3 -22
10 -57 14 -77 10 -47 -2 -49 -56 -9 -66 48 -85 76 -120 178 -19 54 -34 90 -34
81 0 -9 5 -29 10 -44 6 -15 8 -29 6 -31 -3 -3 -14 24 -25 59 l-20 63 -2 -80
c-1 -44 -1 -89 0 -99 2 -30 -7 -15 -44 69 -18 42 -35 70 -38 63 -5 -16 -37 84
-38 121 0 21 -4 17 -17 -19 l-17 -45 -3 80 c-2 44 4 126 13 181 10 56 15 110
12 120 -3 12 -5 8 -6 -12 0 -17 -6 -57 -13 -90 -10 -49 -13 -55 -19 -34 -7 24
-7 24 -9 -5 -1 -16 -8 -46 -16 -65 -13 -33 -14 -28 -9 70 4 104 30 222 61 282
8 16 40 59 71 96 51 61 52 64 13 27 l-43 -40 31 46 c48 72 117 126 192 150 14
5 86 6 160 3 74 -3 146 -5 160 -5z m-746 -56 c17 -9 2 -16 -96 -47 -64 -20
-122 -36 -131 -36 -16 0 -67 68 -67 89 0 11 29 12 138 9 75 -2 146 -9 156 -15z
m1796 11 c0 -3 -14 -26 -31 -51 -28 -40 -35 -44 -61 -39 -54 11 -229 68 -224
73 18 18 316 34 316 17z m-2319 -101 c29 -38 90 -109 136 -159 46 -50 83 -94
83 -98 0 -10 -58 21 -113 61 -27 19 -51 33 -53 30 -8 -8 77 -96 120 -123 l43
-27 6 -161 c3 -105 14 -213 31 -312 l26 -151 -28 -109 -28 -109 -18 75 c-10
41 -36 121 -58 178 -39 101 -64 133 -54 70 3 -18 8 -55 11 -83 5 -50 5 -50
-12 -25 -10 14 -37 45 -61 70 l-43 45 22 -45 c34 -69 111 -256 101 -245 -5 6
-41 55 -80 110 -38 56 -77 107 -86 114 -14 12 -16 8 -16 -33 0 -25 -3 -46 -7
-46 -12 0 -43 115 -43 157 0 21 9 92 20 158 14 81 20 163 19 250 l-1 130 -23
-115 c-12 -63 -29 -151 -38 -195 l-15 -80 5 95 c10 235 24 373 40 403 8 18 31
54 51 80 l34 48 -15 55 c-9 29 -14 54 -12 54 2 0 27 -30 56 -67z m700 -22
c-36 -50 -83 -172 -97 -251 -7 -41 -13 -138 -14 -215 l0 -140 20 30 20 30 0
-39 c0 -49 -20 -65 -85 -66 -37 -1 -45 -4 -30 -10 14 -6 3 -9 -40 -9 -43 -1
-56 -4 -45 -11 11 -7 3 -10 -30 -11 -34 0 -40 -2 -25 -9 16 -7 11 -9 -21 -9
-40 -1 -42 0 -48 37 -19 117 -29 358 -20 485 5 75 12 139 15 142 4 3 98 34
210 69 l204 64 3 -29 c2 -18 -5 -41 -17 -58z m1373 10 c87 -28 164 -55 169
-60 13 -13 16 -419 4 -545 -8 -78 -12 -89 -30 -94 -20 -5 -20 -6 -1 -13 13 -5
4 -8 -29 -8 -30 -1 -46 3 -42 9 4 6 -9 10 -32 11 -30 0 -34 2 -18 9 14 6 1 9
-45 9 -46 1 -61 4 -50 11 17 11 19 10 -55 13 -22 1 -39 5 -37 10 1 4 2 26 2
50 l0 42 20 -30 20 -30 0 140 c-1 207 -33 348 -105 457 -14 21 -25 51 -25 67
l0 30 48 -14 c26 -8 119 -37 206 -64z m510 22 l-15 -52 41 -55 c22 -31 45 -68
50 -82 11 -27 24 -182 34 -379 l5 -110 -33 180 c-18 99 -36 189 -38 200 -16
60 -6 -253 11 -364 30 -190 30 -191 8 -256 -28 -84 -39 -92 -35 -23 3 53 2 56
-14 41 -9 -8 -50 -61 -90 -118 -40 -57 -74 -102 -76 -101 -4 5 87 218 104 244
12 19 13 23 2 20 -12 -4 -80 -84 -105 -124 -10 -16 -10 -14 -3 13 4 18 11 63
15 100 5 62 5 66 -9 49 -19 -24 -71 -167 -100 -276 l-23 -84 -7 44 c-4 25 -16
75 -27 112 -19 64 -19 72 -5 140 27 133 46 307 46 431 l0 123 32 19 c41 24
116 93 130 119 11 20 11 20 -18 1 -68 -45 -138 -84 -142 -80 -2 2 30 41 73 87
43 46 105 118 138 161 33 42 62 76 63 74 2 -1 -4 -26 -12 -54z m-2273 -1090
c-9 -16 -10 -14 -11 12 0 21 3 26 11 18 8 -8 8 -16 0 -30z m1933 -8 l6 -40
-13 30 c-8 17 -12 36 -9 43 6 18 8 13 16 -33z m-1714 -184 c0 -76 11 -109 24
-75 3 9 6 47 6 85 l0 69 35 0 35 0 -1 -82 c0 -61 -6 -99 -23 -143 -22 -58 -24
-60 -63 -63 l-39 -3 -27 78 c-19 55 -27 98 -27 146 l0 67 40 0 40 0 0 -79z
m308 67 c8 -8 12 -55 12 -145 l0 -133 -35 0 c-31 0 -35 3 -35 25 0 16 -6 25
-15 25 -9 0 -15 -9 -15 -25 0 -22 -4 -25 -40 -25 l-40 0 0 126 c0 69 5 134 10
145 9 16 22 19 78 19 40 0 73 -5 80 -12z m154 -40 l27 -53 0 53 1 52 40 0 40
0 0 -145 0 -145 -40 0 c-37 0 -41 3 -64 48 l-25 47 -1 -47 0 -48 -40 0 -40 0
0 145 0 145 38 0 c36 0 39 -3 64 -52z m326 15 l-3 -38 -52 -3 c-38 -2 -53 -7
-53 -18 0 -10 12 -14 40 -14 l40 0 0 -40 0 -40 -40 0 c-59 0 -49 -18 13 -22
l52 -3 3 -37 3 -38 -95 0 -96 0 0 145 0 145 96 0 95 0 -3 -37z m202 -3 l0 -40
-45 0 c-25 0 -45 -4 -45 -10 0 -5 11 -10 24 -10 14 0 36 -4 50 -10 25 -9 26
-13 26 -89 0 -92 2 -91 -106 -91 l-74 0 0 40 0 40 55 0 c30 0 55 5 55 10 0 6
-15 10 -33 10 -18 0 -43 7 -55 16 -19 13 -22 24 -22 79 0 85 11 95 101 95 l69
0 0 -40z m220 0 l0 -40 -45 0 c-25 0 -45 -4 -45 -10 0 -5 11 -10 24 -10 14 0
36 -4 50 -10 25 -9 26 -13 26 -83 0 -43 -5 -78 -12 -85 -7 -7 -43 -12 -90 -12
l-78 0 0 40 0 40 50 0 c28 0 50 5 50 10 0 6 -11 10 -24 10 -14 0 -36 4 -50 10
-25 9 -26 13 -26 83 0 43 5 78 12 85 7 7 42 12 85 12 l73 0 0 -40z m218 28 c8
-8 12 -55 12 -145 l0 -133 -40 0 c-36 0 -40 3 -40 25 0 16 -6 25 -15 25 -9 0
-15 -9 -15 -25 0 -22 -4 -25 -35 -25 l-35 0 0 133 c0 90 4 137 12 145 7 7 40
12 78 12 38 0 71 -5 78 -12z m-1270 -400 c7 -7 12 -45 12 -99 0 -96 -2 -99
-66 -99 -33 0 -34 -1 -34 -40 l0 -40 -40 0 -40 0 0 145 0 145 78 0 c47 0 83
-5 90 -12z m220 0 c8 -8 12 -55 12 -145 l0 -133 -40 0 c-36 0 -40 3 -40 25 0
14 -4 25 -10 25 -5 0 -10 -11 -10 -25 0 -22 -4 -25 -40 -25 l-40 0 0 133 c0
90 4 137 12 145 7 7 40 12 78 12 38 0 71 -5 78 -12z m232 -28 c0 -36 -2 -40
-25 -40 l-25 0 0 -105 0 -105 -40 0 -40 0 0 105 0 105 -25 0 c-22 0 -25 4 -25
40 l0 40 90 0 90 0 0 -40z m204 24 c20 -20 21 -113 2 -139 -11 -16 -11 -21 0
-33 8 -7 14 -33 14 -58 l0 -44 -40 0 -40 0 0 40 c0 29 -4 40 -15 40 -11 0 -15
-11 -15 -40 l0 -40 -40 0 -40 0 0 145 0 145 79 0 c59 0 84 -4 95 -16z m126
-129 l0 -145 -40 0 -40 0 0 145 0 145 40 0 40 0 0 -145z m208 133 c7 -7 12
-34 12 -60 l0 -48 -40 0 c-33 0 -40 3 -40 20 0 11 -7 20 -15 20 -12 0 -15 -14
-15 -65 0 -51 3 -65 15 -65 8 0 15 9 15 20 0 17 7 20 40 20 l40 0 0 -48 c0
-26 -5 -53 -12 -60 -16 -16 -140 -16 -156 0 -17 17 -17 249 0 266 7 7 40 12
78 12 38 0 71 -5 78 -12z m122 -133 l0 -145 -40 0 -40 0 0 145 0 145 40 0 40
0 0 -145z m208 133 c8 -8 12 -55 12 -145 l0 -133 -40 0 c-36 0 -40 3 -40 25 0
16 -6 25 -15 25 -9 0 -15 -9 -15 -25 0 -22 -4 -25 -35 -25 l-35 0 0 133 c0 90
4 137 12 145 7 7 40 12 78 12 38 0 71 -5 78 -12z m-1628 -498 c0 -5 -7 -10
-16 -10 -8 0 -12 -4 -9 -10 10 -16 23 -12 30 10 5 17 14 19 71 18 35 -1 64 -6
64 -11 0 -6 5 -5 13 1 6 5 48 10 92 11 74 1 78 0 60 -14 -17 -14 -18 -17 -5
-25 13 -9 13 -11 0 -20 -13 -8 -12 -10 3 -10 10 0 15 -4 12 -10 -10 -15 -52
-12 -59 5 -6 18 -33 20 -38 4 -6 -19 -58 -20 -65 -2 -5 14 -7 13 -15 -1 -11
-19 -39 -21 -56 -4 -9 9 -12 8 -12 -5 0 -23 -22 -21 -54 4 -15 12 -30 19 -33
15 -4 -3 -1 -6 5 -6 7 0 12 -5 12 -11 0 -6 -12 -9 -27 -7 -25 3 -28 7 -31 46
-3 41 -2 42 27 42 17 0 31 -4 31 -10z m490 0 c0 -4 -6 -11 -12 -14 -10 -5 -10
-7 0 -12 10 -5 10 -9 1 -20 -8 -10 -8 -14 0 -14 6 0 11 -4 11 -10 0 -5 -27 -9
-62 -7 l-63 2 -3 42 -3 42 65 0 c37 0 66 -4 66 -9z m98 -4 c-21 -16 -13 -26
20 -26 15 0 26 7 29 20 5 18 15 19 209 19 l204 -1 0 -39 c0 -27 -5 -42 -16
-46 -20 -7 -48 9 -50 28 -3 31 -7 33 -13 5 -8 -37 -28 -45 -40 -14 -9 22 -10
22 -10 2 -1 -17 -7 -21 -30 -20 -16 1 -33 4 -36 8 -4 4 -15 2 -25 -4 -18 -11
-30 -8 -63 14 -15 11 -20 10 -27 -3 -11 -20 -78 -23 -99 -5 -23 19 -49 27 -56
16 -4 -6 -1 -10 5 -10 6 0 8 -4 5 -10 -10 -16 -52 -12 -59 6 -3 9 -6 29 -6 45
0 27 3 29 38 29 33 -1 35 -2 20 -14z m1122 -2 c0 -19 16 -18 24 1 7 18 32 20
40 3 5 -10 7 -10 12 0 12 26 34 12 34 -23 0 -25 4 -35 16 -35 8 0 12 -4 9 -10
-6 -10 -180 -8 -191 3 -3 3 -15 1 -25 -6 -15 -9 -23 -9 -39 0 -10 7 -21 9 -24
4 -9 -15 -181 -8 -201 9 -15 12 -19 12 -29 -1 -16 -22 -166 -22 -183 0 -10 14
-13 14 -30 -2 -25 -22 -33 -13 -33 34 l0 38 310 -1 c256 0 310 -3 310 -14z"/>
<path d="M1500 2699 c0 -6 -7 -8 -16 -5 -8 3 -12 2 -9 -4 3 -6 -1 -10 -9 -10
-19 0 -83 -58 -101 -93 -13 -25 -12 -27 6 -27 20 0 19 -2 -6 -31 -30 -36 -65
-102 -65 -121 1 -7 8 1 16 17 8 17 12 21 9 10 -7 -23 -24 -152 -24 -180 -1
-19 1 -18 18 4 18 24 18 23 23 -90 4 -93 9 -123 28 -164 l24 -50 4 39 3 39 50
-83 c27 -46 61 -99 77 -119 l27 -36 6 35 5 35 13 -44 c7 -23 14 -41 16 -39 3
2 0 19 -5 38 -5 19 -8 35 -7 37 2 1 35 -53 73 -122 38 -69 71 -125 74 -125 3
0 36 56 75 125 38 68 71 123 72 121 1 -1 -2 -17 -7 -36 -5 -19 -8 -36 -5 -38
2 -2 9 16 16 39 l13 44 5 -35 6 -35 27 36 c16 20 50 73 77 119 l50 83 3 -39 4
-39 24 50 c19 41 24 71 28 164 5 114 5 115 23 92 17 -21 19 -21 19 -5 -1 29
-18 157 -25 179 -3 11 1 7 9 -10 8 -16 15 -24 16 -17 0 19 -35 85 -65 121 -25
29 -26 31 -6 31 18 0 19 2 6 27 -18 35 -82 93 -101 93 -8 0 -12 4 -9 10 3 6
-1 7 -9 4 -9 -3 -16 -1 -16 5 0 20 -64 11 -120 -16 -73 -35 -87 -37 -95 -13
-4 11 -10 20 -15 20 -5 0 -11 -9 -15 -20 -8 -24 -22 -22 -95 13 -56 27 -120
36 -120 16z m105 -94 c11 -2 23 -4 28 -4 4 -1 7 -6 7 -12 0 -8 -6 -7 -17 2
-16 13 -17 12 -4 -4 8 -9 16 -15 19 -12 3 3 19 -7 36 -22 28 -25 29 -25 11 -3
-19 24 -19 24 18 -3 20 -16 37 -24 37 -19 0 5 12 18 28 27 l27 18 -20 -24
c-16 -20 -14 -19 11 4 17 15 33 25 36 22 3 -3 11 3 19 12 13 16 12 17 -3 4
-12 -9 -18 -10 -18 -2 0 6 3 11 8 12 4 0 18 3 32 6 40 7 93 5 99 -5 3 -5 21
-17 39 -26 33 -17 45 -40 15 -29 -12 4 -9 -1 6 -14 16 -13 22 -26 18 -36 -6
-15 -11 -14 -43 8 -20 14 -46 25 -58 24 -15 -1 -11 -4 12 -10 42 -12 41 -19
-2 -17 -19 1 -46 -6 -60 -16 -14 -9 -26 -13 -27 -9 -1 12 -17 -30 -18 -46 -1
-10 9 -5 27 12 29 28 98 40 90 15 -8 -23 -58 -51 -93 -52 -41 -1 -44 -10 -11
-31 28 -18 111 -34 86 -16 -13 9 -13 11 1 11 8 0 24 7 35 16 10 8 13 12 5 8
-7 -4 -3 7 10 25 l23 32 13 -25 c7 -13 15 -43 17 -67 5 -37 4 -39 -4 -14 -6
22 -7 13 -4 -35 4 -61 3 -66 -22 -84 l-26 -18 12 22 c7 12 7 20 2 16 -6 -3
-12 0 -15 6 -2 7 -8 -5 -12 -27 l-8 -40 -14 35 c-12 32 -13 33 -7 5 5 -27 2
-26 -24 16 -31 48 -63 79 -44 43 5 -11 7 -25 4 -33 -2 -8 0 -11 5 -8 11 7 0
-73 -16 -115 -14 -37 -28 -42 -57 -23 -41 27 -40 42 6 83 l42 37 -24 35 c-13
19 -33 36 -43 38 -14 2 -16 0 -7 -6 9 -6 6 -11 -11 -19 -18 -8 -28 -8 -36 0
-8 8 -14 8 -22 0 -8 -8 -18 -8 -36 0 -17 8 -20 13 -11 19 9 6 7 8 -7 6 -10 -2
-30 -19 -43 -38 l-24 -35 42 -37 c46 -41 47 -56 6 -83 -29 -19 -43 -14 -57 23
-16 42 -27 122 -16 115 5 -3 7 0 5 8 -3 8 -1 22 4 33 19 36 -13 5 -44 -43 -26
-42 -29 -43 -24 -16 6 28 5 27 -7 -5 l-14 -35 -8 40 c-4 22 -10 34 -12 27 -3
-6 -9 -9 -15 -6 -5 4 -5 -4 2 -16 l12 -22 -26 18 c-25 18 -26 23 -22 84 4 49
3 58 -4 35 -8 -26 -9 -24 -4 14 2 24 10 54 17 67 l13 25 23 -32 c13 -18 17
-29 10 -25 -8 4 -5 0 5 -8 11 -9 27 -16 35 -16 14 0 14 -2 1 -11 -25 -18 58
-2 86 16 33 21 30 30 -11 31 -35 1 -85 29 -93 52 -8 25 61 13 90 -15 18 -17
28 -22 27 -12 -1 16 -17 58 -18 46 -1 -4 -13 0 -27 9 -14 10 -41 17 -60 16
-43 -2 -44 5 -1 17 22 6 26 9 11 10 -12 1 -38 -10 -58 -24 -32 -22 -37 -23
-43 -8 -4 10 2 23 18 36 15 13 18 18 7 14 -31 -11 -19 12 15 29 17 9 34 20 37
24 8 12 43 19 65 13 11 -2 29 -6 40 -8z m177 -567 c16 -6 31 -21 37 -41 11
-29 12 -30 27 -11 14 18 15 18 4 -4 -6 -13 -17 -21 -23 -19 -6 2 -27 -7 -46
-20 -18 -13 -42 -23 -51 -23 -9 0 -33 10 -51 23 -19 13 -40 22 -46 20 -6 -2
-17 6 -23 19 -11 22 -10 22 4 4 15 -19 16 -18 26 11 12 32 71 66 100 56 8 -3
27 -9 42 -15z"/>
<path d="M1611 2707 c2 -2 20 -14 39 -26 l35 -23 -28 26 c-15 14 -33 26 -39
26 -6 0 -9 -1 -7 -3z"/>
<path d="M1803 2684 l-28 -26 35 23 c46 29 45 29 32 29 -6 0 -24 -12 -39 -26z"/>
<path d="M1172 2030 c0 -14 2 -19 5 -12 2 6 2 18 0 25 -3 6 -5 1 -5 -13z"/>
<path d="M2282 2030 c0 -14 2 -19 5 -12 2 6 2 18 0 25 -3 6 -5 1 -5 -13z"/>
<path d="M2141 1884 c0 -11 3 -14 6 -6 3 7 2 16 -1 19 -3 4 -6 -2 -5 -13z"/>
<path d="M1261 1800 c0 -8 4 -24 9 -35 5 -13 9 -14 9 -5 0 8 -4 24 -9 35 -5
13 -9 14 -9 5z"/>
<path d="M2186 1784 c-4 -14 -5 -28 -3 -31 3 -2 8 8 11 23 4 14 5 28 3 31 -3
2 -8 -8 -11 -23z"/>
<path d="M1621 1720 c14 -31 19 -36 19 -24 0 6 -7 19 -16 30 -14 18 -14 18 -3
-6z"/>
<path d="M1830 1719 c-7 -11 -10 -23 -7 -25 2 -2 9 7 15 21 14 30 7 33 -8 4z"/>
<path d="M2628 1853 c7 -3 16 -2 19 1 4 3 -2 6 -13 5 -11 0 -14 -3 -6 -6z"/>
<path d="M1210 1260 c0 -29 4 -40 15 -40 11 0 15 11 15 40 0 29 -4 40 -15 40
-11 0 -15 -11 -15 -40z"/>
<path d="M2320 1260 c0 -29 4 -40 15 -40 11 0 15 11 15 40 0 29 -4 40 -15 40
-11 0 -15 -11 -15 -40z"/>
<path d="M1060 875 c0 -16 6 -25 15 -25 9 0 15 9 15 25 0 16 -6 25 -15 25 -9
0 -15 -9 -15 -25z"/>
<path d="M1280 860 c0 -22 5 -40 10 -40 6 0 10 18 10 40 0 22 -4 40 -10 40 -5
0 -10 -18 -10 -40z"/>
<path d="M1710 875 c0 -16 6 -25 15 -25 9 0 15 9 15 25 0 16 -6 25 -15 25 -9
0 -15 -9 -15 -25z"/>
<path d="M2370 860 c0 -29 4 -40 15 -40 11 0 15 11 15 40 0 29 -4 40 -15 40
-11 0 -15 -11 -15 -40z"/>
<path d="M2180 450 c0 -5 4 -10 9 -10 6 0 13 5 16 10 3 6 -1 10 -9 10 -9 0
-16 -4 -16 -10z"/>
<path d="M3194 3378 c38 -22 103 -73 144 -112 58 -55 71 -64 59 -40 -23 46
-83 114 -135 156 -39 31 -55 38 -92 38 l-45 0 69 -42z"/>
</g>
</svg>
