<?xml version="1.0" standalone="no"?>
<!DOCTYPE svg PUBLIC "-//W3C//DTD SVG 20010904//EN"
 "http://www.w3.org/TR/2001/REC-SVG-20010904/DTD/svg10.dtd">
<svg version="1.0" xmlns="http://www.w3.org/2000/svg"
 width="306.000000pt" height="165.000000pt" viewBox="0 0 306.000000 165.000000"
 preserveAspectRatio="xMidYMid meet">

<g transform="translate(0.000000,165.000000) scale(0.100000,-0.100000)"
fill="#000000" stroke="none">
<path d="M221 1626 c-24 -25 -36 -63 -46 -142 -6 -48 -11 -56 -70 -108 -80
-70 -110 -128 -102 -196 7 -55 37 -164 44 -157 2 3 -3 31 -13 62 -21 75 -16
161 14 202 12 17 45 50 72 73 l50 42 0 -69 c1 -114 19 -312 40 -428 40 -225
118 -388 204 -429 62 -29 95 -18 144 52 83 116 161 517 177 907 3 85 2 123 -4
110 -5 -11 -10 -40 -10 -65 -2 -114 -51 -475 -86 -630 -51 -225 -114 -350
-176 -350 -24 0 -35 8 -60 47 -64 102 -118 326 -149 617 -27 246 -26 277 4
305 49 46 73 140 44 169 -19 19 -53 14 -77 -12z m57 -42 c1 -17 -7 -43 -20
-64 l-23 -35 -3 53 c-3 54 10 86 32 79 6 -2 12 -17 14 -33z"/>
<path d="M2041 1256 c-29 -31 -37 -83 -18 -127 13 -31 13 -40 0 -70 -17 -40
-67 -95 -105 -115 -36 -18 -98 -18 -125 1 -13 9 -27 33 -33 54 -26 99 54 233
108 179 17 -17 15 -48 -5 -70 -9 -10 -11 -18 -5 -18 15 0 52 49 52 70 0 54
-102 80 -154 39 -36 -28 -46 -51 -56 -120 -5 -32 -18 -73 -30 -91 l-22 -33 25
28 24 29 20 -38 c34 -65 113 -91 187 -60 43 18 98 76 121 126 l18 40 23 -21
c27 -25 54 -79 54 -107 0 -14 -10 -24 -35 -32 -19 -6 -44 -23 -55 -37 -34 -44
-22 -103 22 -103 27 0 89 61 110 108 13 28 29 47 46 53 34 13 79 55 98 92 19
35 30 34 54 -5 22 -36 18 -48 -14 -48 -42 0 -71 -51 -44 -78 28 -28 98 0 119
47 9 19 29 36 63 52 28 12 54 24 59 27 4 2 7 -5 7 -15 0 -10 9 -33 20 -50 36
-59 107 -37 150 45 6 13 10 26 7 28 -2 3 -10 -9 -17 -26 -12 -28 -44 -60 -62
-60 -18 0 -38 35 -38 68 0 94 50 172 109 172 33 0 42 14 15 24 -9 3 -33 6 -54
6 -50 0 -100 -47 -119 -111 -16 -53 -34 -75 -83 -100 l-36 -19 -8 33 c-3 17
-23 46 -43 65 -32 29 -36 38 -36 85 0 45 -3 52 -21 55 -51 7 -71 -64 -34 -123
l20 -32 -30 -46 c-26 -41 -72 -77 -100 -77 -5 0 -10 17 -10 38 0 41 -15 67
-67 123 -33 35 -33 36 -18 72 8 20 15 50 15 67 0 25 -4 30 -23 30 -13 0 -33
-11 -46 -24z m55 -38 c-8 -40 -22 -65 -32 -55 -13 13 -9 74 6 91 19 24 34 4
26 -36z m249 -41 c0 -20 -4 -38 -10 -39 -14 -2 -29 46 -22 67 12 29 32 10 32
-28z m35 -215 c0 -21 -34 -53 -53 -50 -27 4 -32 22 -12 42 17 16 65 22 65 8z
m-260 -57 c0 -17 -42 -83 -55 -89 -29 -11 -35 -7 -35 23 0 20 9 36 26 50 24
19 64 29 64 16z"/>
<path d="M1268 1219 c-21 -12 -37 -61 -42 -125 -4 -58 -23 -100 -66 -143 -36
-36 -60 -39 -84 -12 -24 26 -30 77 -18 155 12 78 8 98 -21 94 -21 -3 -31 -26
-51 -113 -5 -22 -4 -26 4 -15 7 12 10 9 10 -15 0 -80 43 -145 95 -145 30 0 72
35 105 87 l28 44 18 -38 c23 -46 48 -50 52 -8 9 95 72 215 113 215 28 0 40
-33 48 -138 4 -53 14 -107 21 -119 30 -48 99 -53 150 -12 l25 21 -31 -18 c-44
-24 -80 -13 -92 28 -6 18 -12 67 -15 109 -8 113 -31 149 -97 149 -36 0 -85
-54 -101 -112 -22 -77 -32 -68 -26 24 3 48 3 89 -1 92 -4 2 -15 0 -24 -5z"/>
<path d="M877 1204 c-37 -20 -77 -105 -77 -164 0 -65 30 -110 72 -110 18 0 40
6 49 13 19 14 59 77 59 92 -1 6 -10 -7 -21 -27 -10 -21 -29 -43 -41 -49 -19
-10 -24 -8 -41 12 -16 20 -18 33 -13 77 11 91 50 142 108 142 30 0 38 14 12
24 -27 10 -78 6 -107 -10z"/>
<path d="M2765 1179 c-12 -19 -33 -119 -24 -113 5 3 9 -12 9 -33 0 -21 9 -57
19 -80 16 -35 25 -43 56 -49 28 -5 43 -2 63 13 29 21 92 108 92 126 0 6 -16
-14 -35 -45 -44 -70 -86 -92 -117 -61 -26 26 -33 91 -19 167 8 43 8 63 0 73
-14 16 -35 17 -44 2z"/>
<path d="M2986 1085 c-9 -26 -7 -32 5 -12 6 10 9 21 6 23 -2 3 -7 -2 -11 -11z"/>
</g>
</svg>
